<?xml version="1.0" encoding="UTF-8"?>
<svg xmlns="http://www.w3.org/2000/svg" xmlns:xlink="http://www.w3.org/1999/xlink" width="31px" height="31px" viewBox="0 0 31 31" version="1.1">
<g id="surface1">
<path style=" stroke:none;fill-rule:nonzero;fill:rgb(0%,0%,0%);fill-opacity:1;" d="M 8.855469 0 C 10.082031 0 11.070312 0.867188 11.070312 1.9375 L 11.070312 3.875 L 19.929688 3.875 L 19.929688 1.9375 C 19.929688 0.867188 20.917969 0 22.144531 0 C 23.367188 0 24.355469 0.867188 24.355469 1.9375 L 24.355469 3.875 L 27.679688 3.875 C 29.511719 3.875 31 5.175781 31 6.78125 L 31 9.6875 L 0 9.6875 L 0 6.78125 C 0 5.175781 1.488281 3.875 3.320312 3.875 L 6.644531 3.875 L 6.644531 1.9375 C 6.644531 0.867188 7.632812 0 8.855469 0 Z M 0 11.625 L 31 11.625 L 31 28.09375 C 31 29.699219 29.511719 31 27.679688 31 L 3.320312 31 C 1.488281 31 0 29.699219 0 28.09375 Z M 4.429688 16.46875 L 4.429688 18.40625 C 4.429688 18.9375 4.925781 19.375 5.535156 19.375 L 7.75 19.375 C 8.359375 19.375 8.855469 18.9375 8.855469 18.40625 L 8.855469 16.46875 C 8.855469 15.9375 8.359375 15.5 7.75 15.5 L 5.535156 15.5 C 4.925781 15.5 4.429688 15.9375 4.429688 16.46875 Z M 13.285156 16.46875 L 13.285156 18.40625 C 13.285156 18.9375 13.785156 19.375 14.394531 19.375 L 16.605469 19.375 C 17.214844 19.375 17.714844 18.9375 17.714844 18.40625 L 17.714844 16.46875 C 17.714844 15.9375 17.214844 15.5 16.605469 15.5 L 14.394531 15.5 C 13.785156 15.5 13.285156 15.9375 13.285156 16.46875 Z M 23.25 15.5 C 22.640625 15.5 22.144531 15.9375 22.144531 16.46875 L 22.144531 18.40625 C 22.144531 18.9375 22.640625 19.375 23.25 19.375 L 25.464844 19.375 C 26.074219 19.375 26.570312 18.9375 26.570312 18.40625 L 26.570312 16.46875 C 26.570312 15.9375 26.074219 15.5 25.464844 15.5 Z M 4.429688 24.21875 L 4.429688 26.15625 C 4.429688 26.6875 4.925781 27.125 5.535156 27.125 L 7.75 27.125 C 8.359375 27.125 8.855469 26.6875 8.855469 26.15625 L 8.855469 24.21875 C 8.855469 23.6875 8.359375 23.25 7.75 23.25 L 5.535156 23.25 C 4.925781 23.25 4.429688 23.6875 4.429688 24.21875 Z M 14.394531 23.25 C 13.785156 23.25 13.285156 23.6875 13.285156 24.21875 L 13.285156 26.15625 C 13.285156 26.6875 13.785156 27.125 14.394531 27.125 L 16.605469 27.125 C 17.214844 27.125 17.714844 26.6875 17.714844 26.15625 L 17.714844 24.21875 C 17.714844 23.6875 17.214844 23.25 16.605469 23.25 Z M 22.144531 24.21875 L 22.144531 26.15625 C 22.144531 26.6875 22.640625 27.125 23.25 27.125 L 25.464844 27.125 C 26.074219 27.125 26.570312 26.6875 26.570312 26.15625 L 26.570312 24.21875 C 26.570312 23.6875 26.074219 23.25 25.464844 23.25 L 23.25 23.25 C 22.640625 23.25 22.144531 23.6875 22.144531 24.21875 Z M 22.144531 24.21875 "/>
</g>
</svg>
