<?xml version="1.0" encoding="UTF-8"?>
<svg xmlns="http://www.w3.org/2000/svg" xmlns:xlink="http://www.w3.org/1999/xlink" width="31px" height="31px" viewBox="0 0 31 31" version="1.1">
<g id="surface1">
<path style=" stroke:none;fill-rule:nonzero;fill:rgb(0%,0%,0%);fill-opacity:1;" d="M 28.09375 15.5 C 28.09375 22.457031 22.457031 28.09375 15.5 28.09375 C 8.542969 28.09375 2.90625 22.457031 2.90625 15.5 C 2.90625 8.542969 8.542969 2.90625 15.5 2.90625 C 22.457031 2.90625 28.09375 8.542969 28.09375 15.5 Z M 0 15.5 C 0 24.058594 6.941406 31 15.5 31 C 24.058594 31 31 24.058594 31 15.5 C 31 6.941406 24.058594 0 15.5 0 C 6.941406 0 0 6.941406 0 15.5 Z M 14.046875 7.265625 L 14.046875 15.5 C 14.046875 15.984375 14.289062 16.4375 14.695312 16.710938 L 20.507812 20.585938 C 21.171875 21.035156 22.074219 20.851562 22.523438 20.179688 C 22.972656 19.507812 22.789062 18.613281 22.117188 18.164062 L 16.953125 14.726562 L 16.953125 7.265625 C 16.953125 6.460938 16.304688 5.8125 15.5 5.8125 C 14.695312 5.8125 14.046875 6.460938 14.046875 7.265625 Z M 14.046875 7.265625 "/>
</g>
</svg>
