<?xml version="1.0" encoding="UTF-8"?>
<svg xmlns="http://www.w3.org/2000/svg" xmlns:xlink="http://www.w3.org/1999/xlink" width="31px" height="31px" viewBox="0 0 31 31" version="1.1">
<g id="surface1">
<path style=" stroke:none;fill-rule:nonzero;fill:rgb(33.72549%,34.117647%,34.901961%);fill-opacity:1;" d="M 17.40625 21.914062 L 19.667969 27.410156 C 19.914062 28.007812 20.597656 28.289062 21.191406 28.046875 C 21.78125 27.804688 22.070312 27.121094 21.824219 26.527344 L 19.785156 21.574219 Z M 12.742188 21.914062 L 15.007812 27.40625 C 15.25 28.003906 15.933594 28.285156 16.527344 28.042969 C 17.121094 27.800781 17.40625 27.113281 17.164062 26.523438 L 15.265625 21.914062 Z M 12.742188 21.914062 "/>
<path style=" stroke:none;fill-rule:nonzero;fill:rgb(33.72549%,34.117647%,34.901961%);fill-opacity:1;" d="M 26.421875 9.664062 L 30.328125 8.6875 C 30.746094 8.585938 31 8.164062 30.894531 7.746094 C 30.546875 6.363281 29.304688 5.390625 27.878906 5.390625 L 25.445312 5.390625 "/>
<path style=" stroke:none;fill-rule:nonzero;fill:rgb(0%,0%,0%);fill-opacity:1;" d="M 19.628906 21.980469 C 20.835938 21.710938 22.871094 20.796875 24.496094 18.671875 C 26.261719 16.371094 26.410156 13.894531 26.421875 12.996094 L 26.421875 9.5 C 26.421875 9.488281 26.410156 8.136719 26.402344 7.863281 C 26.371094 7.261719 26.210938 6.800781 26.132812 6.582031 C 26.042969 6.324219 25.722656 5.449219 24.871094 4.714844 C 24.535156 4.425781 23.570312 3.6875 22.152344 3.675781 C 21.984375 3.675781 20.375 3.679688 19.128906 4.929688 C 18.359375 5.703125 17.878906 6.769531 17.878906 7.949219 L 17.878906 9.367188 L 0.605469 22.640625 C -0.0742188 23.167969 -0.199219 24.140625 0.320312 24.824219 C 0.839844 25.503906 1.820312 25.628906 2.5 25.109375 L 6.125 22.320312 C 8.28125 22.320312 12.589844 22.320312 12.589844 22.320312 L 14.59375 22.34375 C 14.59375 22.34375 17.683594 22.417969 19.628906 21.980469 Z M 22.144531 6.78125 C 22.792969 6.78125 23.3125 7.300781 23.3125 7.945312 C 23.3125 8.589844 22.792969 9.109375 22.144531 9.109375 C 21.5 9.109375 20.980469 8.589844 20.980469 7.945312 C 20.980469 7.300781 21.5 6.78125 22.144531 6.78125 Z M 26.421875 9.488281 "/>
</g>
</svg>
