<?xml version="1.0" encoding="UTF-8"?>
<svg xmlns="http://www.w3.org/2000/svg" xmlns:xlink="http://www.w3.org/1999/xlink" width="31px" height="31px" viewBox="0 0 31 31" version="1.1">
<g id="surface1">
<path style=" stroke:none;fill-rule:nonzero;fill:rgb(0%,0%,0%);fill-opacity:1;" d="M 9.210938 2.3125 C 9.808594 2.851562 9.855469 3.765625 9.316406 4.367188 L 4.957031 9.210938 C 4.691406 9.507812 4.316406 9.679688 3.917969 9.6875 C 3.519531 9.695312 3.136719 9.542969 2.851562 9.265625 L 0.421875 6.84375 C -0.140625 6.273438 -0.140625 5.351562 0.421875 4.78125 C 0.988281 4.214844 1.914062 4.214844 2.476562 4.78125 L 3.8125 6.121094 L 7.152344 2.414062 C 7.6875 1.816406 8.605469 1.769531 9.203125 2.308594 Z M 9.210938 12 C 9.808594 12.539062 9.855469 13.453125 9.316406 14.054688 L 4.957031 18.898438 C 4.691406 19.195312 4.316406 19.367188 3.917969 19.375 C 3.519531 19.382812 3.136719 19.230469 2.851562 18.953125 L 0.421875 16.53125 C -0.144531 15.960938 -0.144531 15.039062 0.421875 14.476562 C 0.992188 13.914062 1.914062 13.90625 2.476562 14.476562 L 3.8125 15.816406 L 7.152344 12.109375 C 7.6875 11.511719 8.605469 11.460938 9.203125 12 Z M 13.5625 5.8125 C 13.5625 4.742188 14.429688 3.875 15.5 3.875 L 29.0625 3.875 C 30.132812 3.875 31 4.742188 31 5.8125 C 31 6.882812 30.132812 7.75 29.0625 7.75 L 15.5 7.75 C 14.429688 7.75 13.5625 6.882812 13.5625 5.8125 Z M 13.5625 15.5 C 13.5625 14.429688 14.429688 13.5625 15.5 13.5625 L 29.0625 13.5625 C 30.132812 13.5625 31 14.429688 31 15.5 C 31 16.570312 30.132812 17.4375 29.0625 17.4375 L 15.5 17.4375 C 14.429688 17.4375 13.5625 16.570312 13.5625 15.5 Z M 9.6875 25.1875 C 9.6875 24.117188 10.554688 23.25 11.625 23.25 L 29.0625 23.25 C 30.132812 23.25 31 24.117188 31 25.1875 C 31 26.257812 30.132812 27.125 29.0625 27.125 L 11.625 27.125 C 10.554688 27.125 9.6875 26.257812 9.6875 25.1875 Z M 2.90625 22.28125 C 4.511719 22.28125 5.8125 23.582031 5.8125 25.1875 C 5.8125 26.792969 4.511719 28.09375 2.90625 28.09375 C 1.300781 28.09375 0 26.792969 0 25.1875 C 0 23.582031 1.300781 22.28125 2.90625 22.28125 Z M 2.90625 22.28125 "/>
</g>
</svg>
